<svg width="47" height="47" viewBox="0 0 47 47" fill="none" xmlns="http://www.w3.org/2000/svg">
<path d="M19.2299 45H19.2273C14.6583 45 10.2765 43.185 7.04575 39.9542C3.81501 36.7235 2 32.3417 2 27.7727C2 23.2038 3.81501 18.8219 7.04575 15.5912C9.8015 12.8354 13.3948 11.1097 17.2273 10.6619V27.7727V28.6011L17.8131 29.1869L20.2955 31.6694L29.9141 41.2879C28.6705 42.2733 27.2937 43.0836 25.8218 43.6933C23.732 44.5588 21.4918 45.0029 19.2299 45ZM29.7727 17.2273V2.11643C33.6052 2.56429 37.1985 4.29 39.9542 7.04575C42.71 9.8015 44.4357 13.3948 44.8836 17.2273H29.7727ZM32.6638 27.6364H42.75C42.4478 30.2479 41.549 32.7551 40.1245 34.9629L32.6638 27.6364Z" stroke="#0046FF" stroke-width="4"/>
</svg>
