<svg width="119" height="262" viewBox="0 0 119 262" fill="none" xmlns="http://www.w3.org/2000/svg">
<path d="M87.336 130.895H51.4429C51.4429 130.895 53.1439 98.0273 59.7451 56.8137C60.463 52.4147 63.3813 44.3342 73.3377 45.3169C82.3578 46.2373 87.6794 53.5378 87.6794 70.9311C87.695 98.62 87.336 130.895 87.336 130.895Z" fill="#E40E64"/>
<path d="M63.3813 188.067L104.736 244.458L111.135 241.666C111.135 241.666 107.686 206.552 82.0769 183.948L81.6399 148.382L59.7919 167.101" fill="#001DBF"/>
<path d="M51.4585 130.895L47.1981 249.669H55.3599C55.3599 249.669 69.2646 218.954 63.3812 195.882C63.3812 195.882 84.4958 158.6 87.336 130.895H51.4585Z" fill="#0046FF"/>
<path style="mix-blend-mode:multiply" opacity="0.29" d="M51.4584 130.895L86.6493 135.887L87.336 130.895" fill="url(#paint0_linear_116_337)"/>
<path d="M48.9303 22.3701C48.953 29.9873 50.4418 37.5289 53.3155 44.5836C55.3469 45.0109 57.4469 44.9923 59.4703 44.529C61.4938 44.0658 63.3925 43.169 65.0354 41.9005L65.3007 48.1403L75.1011 45.4572L74.789 33.1961L72.3545 34.0852L72.1204 30.2322C73.0182 29.5656 73.7067 28.6564 74.1048 27.6117C74.503 26.5671 74.5941 25.4304 74.3676 24.3356C73.5873 20.467 70.3257 23.3997 69.6859 24.3356L69.5611 27.1435C69.5611 27.1435 67.2514 22.3233 69.3426 19.531L65.7689 15.5376C60.9497 19.4196 55.0929 21.7961 48.9303 22.3701Z" fill="#FFCDA9"/>
<path d="M76.1935 11.1071C75.7515 9.21924 74.6948 7.53152 73.1893 6.30898C71.6838 5.08645 69.8148 4.39829 67.8757 4.35254C69.4362 9.11035 66.752 13.7122 65.3475 18.392L67.9225 17.612C67.389 20.8645 67.972 24.2017 69.5767 27.0809L69.7015 24.273C69.7015 24.273 71.1529 21.9643 73.1504 22.8378C75.1479 23.7114 74.6173 27.9076 72.1673 30.1851L72.4013 35.3173L74.8358 34.4438L74.9138 36.6121C76.2287 35.2114 76.9453 33.3535 76.9114 31.4331C76.9114 31.4331 86.3996 22.635 76.1935 11.1071Z" fill="#93542A"/>
<path d="M67.9225 17.6747C67.9225 17.6747 60.3537 26.3012 58.9024 21.6214C58.9024 21.6214 54.4547 25.5992 51.4584 22.0893C51.4584 22.0893 43.2186 23.5401 41.8141 19.7339C40.2535 15.4284 47.1669 13.7593 47.1669 13.7593C47.1669 13.7593 40.2848 9.87505 42.1262 6.72398C43.9677 3.5729 53.6276 5.66318 53.6276 5.66318C53.6276 5.66318 50.1164 2.13776 51.4584 0.390631C52.8005 -1.3565 62.0391 3.32328 62.0391 3.32328C62.0391 3.32328 58.2625 1.32658 60.2913 0.624612C62.32 -0.0773598 67.8757 4.43087 67.8757 4.43087L70.2789 7.6599L69.5767 16.224L67.9225 17.6747Z" fill="#93542A"/>
<path d="M78.4096 46.7047L76.849 40.543C76.849 40.543 67.5636 41.3229 62.601 47.7343L62.1172 50.4486C62.1172 50.4486 71.9332 47.7343 78.4096 46.7047Z" fill="#FBFFFF"/>
<path d="M54.9698 249.669H47.1825V253.6H54.9698V249.669Z" fill="white"/>
<path d="M110.976 240.253L104.517 244.601L106.714 247.862L113.173 243.513L110.976 240.253Z" fill="white"/>
<path d="M54.9854 253.6V261.946H20.8713L47.1825 253.6H54.9854Z" fill="#C7DAEA"/>
<path d="M113.163 243.554L119 249.669L102.161 261.945H85.4321L98.4317 256.548L106.687 247.89L113.163 243.554Z" fill="#C7DAEA"/>
<path d="M6.67005 84.0967L0.67744 79.3389C0.466143 79.1709 0.295508 78.9574 0.178212 78.7143C0.0609161 78.4712 0 78.2048 0 77.9349C0 77.665 0.0609161 77.3986 0.178212 77.1555C0.295508 76.9124 0.466143 76.699 0.67744 76.531L8.74559 70.104C9.06545 69.8443 9.46496 69.7026 9.87702 69.7026C10.2891 69.7026 10.6886 69.8443 11.0084 70.104L28.4244 84.3619C28.6395 84.5396 28.8102 84.7651 28.9229 85.0203C29.0355 85.2755 29.0871 85.5535 29.0735 85.8322C29.0598 86.1108 28.9814 86.3824 28.8443 86.6255C28.7073 86.8685 28.5154 87.0762 28.284 87.2321L22.0417 91.522" fill="#B8D9FF"/>
<path d="M27.5817 83.7072L11.3518 70.4165L0.427795 79.1054C0.427795 79.1054 0.521422 79.277 0.615056 79.3394L4.17316 82.1628L16.4705 93.0824L27.5817 83.7072Z" fill="#545454"/>
<path d="M21.0429 94.5795C18.8879 94.8652 16.7515 95.2767 14.6446 95.8119L9.07333 88.5893L5.7337 86.9514V82.8176L7.79367 84.4711L13.3649 84.2683L8.68318 81.5541L11.0865 79.9941L15.7682 82.0064L22.3538 88.0746H56.3899L66.596 65.7051L80.6412 70.8685C80.6412 70.8685 74.2428 88.5894 62.0704 99.9301C48.2588 99.4146 34.5245 97.6234 21.0429 94.5795Z" fill="#FFCDA9"/>
<path d="M60.3537 72.9592L79.0806 80.5872C79.0806 80.5872 90.1294 56.1742 80.6411 51.0888C71.1529 46.0034 60.3537 72.9592 60.3537 72.9592Z" fill="#FF277A"/>
<defs>
<linearGradient id="paint0_linear_116_337" x1="30.8121" y1="133.391" x2="83.575" y2="133.391" gradientUnits="userSpaceOnUse">
<stop stop-color="#00BBFF"/>
<stop offset="0.15" stop-color="#00B3F9"/>
<stop offset="0.38" stop-color="#009CE8"/>
<stop offset="0.68" stop-color="#0076CC"/>
<stop offset="1" stop-color="#0045A8"/>
</linearGradient>
</defs>
</svg>
