<svg width="70" height="59" viewBox="0 0 70 59" fill="none" xmlns="http://www.w3.org/2000/svg">
<g opacity="0.1">
<path d="M38.6289 46.1034C40.1296 41.9643 37.9884 37.3923 33.8463 35.8915C29.7043 34.3906 25.1299 36.5294 23.6291 40.6684C22.1284 44.8075 24.2696 49.3795 28.4117 50.8803C32.5538 52.3811 37.1282 50.2424 38.6289 46.1034Z" fill="white"/>
<path d="M59.4269 31.5785C58.8511 31.4689 58.3097 31.2236 57.8478 30.8629C57.3858 30.5022 57.0166 30.0367 56.7709 29.5048C54.8932 25.4372 52.0718 21.8755 48.5411 19.1155C45.0104 16.3555 40.8721 14.4767 36.4697 13.635C32.0673 12.7933 27.5278 13.0131 23.2279 14.276C18.928 15.539 14.9919 17.8087 11.7461 20.8968C11.3953 21.2303 10.9822 21.4915 10.5304 21.6655C10.0786 21.8394 9.59686 21.9227 9.11277 21.9106C8.13512 21.8862 7.20712 21.4746 6.53294 20.7664C6.19912 20.4158 5.93766 20.0029 5.76348 19.5513C5.58931 19.0997 5.50583 18.6183 5.51782 18.1345C5.54204 17.1575 5.95363 16.2302 6.66206 15.5567C10.7562 11.6602 15.7216 8.79622 21.146 7.2025C26.5704 5.60878 32.2973 5.33131 37.8512 6.39312C43.405 7.45494 48.6257 9.8254 53.0796 13.3077C57.5336 16.79 61.0923 21.2836 63.4604 26.4156C63.7447 27.0305 63.8539 27.7119 63.7759 28.3848C63.6979 29.0577 63.4357 29.696 63.0182 30.2295C62.6007 30.7631 62.044 31.1712 61.4094 31.409C60.7748 31.6467 60.0867 31.705 59.421 31.5773L59.4269 31.5785Z" fill="white"/>
<path d="M12.3851 19.7259L8.58826 19L8.06689 21.727L11.0039 22.2885L12.3851 19.7259Z" fill="white"/>
<path d="M48.8425 40.7662C48.196 40.6445 47.5939 40.3519 47.0987 39.9189C46.6035 39.4859 46.2334 38.9284 46.0267 38.3041C45.1385 35.6173 43.555 33.2128 41.437 31.3345C39.3189 29.4563 36.7416 28.1711 33.9665 27.6094C31.1914 27.0477 28.3172 27.2293 25.6354 28.136C22.9536 29.0426 20.5596 30.642 18.6963 32.7719C18.0525 33.5069 17.1428 33.9562 16.1674 34.0208C15.192 34.0855 14.2307 33.7602 13.4951 33.1167C12.7594 32.4731 12.3097 31.5639 12.2447 30.5891C12.1798 29.6143 12.505 28.6537 13.1488 27.9187C15.8676 24.8118 19.3604 22.4788 23.2728 21.1562C27.1853 19.8337 31.3784 19.5686 35.427 20.3878C39.4756 21.2071 43.2357 23.0815 46.3262 25.8211C49.4166 28.5607 51.7274 32.0681 53.0243 35.9876C53.226 36.5968 53.2651 37.2481 53.1376 37.877C53.0101 38.5059 52.7206 39.0905 52.2975 39.5732C51.8745 40.0558 51.3327 40.4196 50.7257 40.6287C50.1187 40.8377 49.4675 40.8848 48.8366 40.7651L48.8425 40.7662Z" fill="white"/>
<path d="M18.8037 31.8162L15.6978 31.2224L15.1765 33.9494L18.2823 34.5432L18.8037 31.8162Z" fill="white"/>
<path d="M52.3422 38.6087L49.2363 38.0149L48.715 40.7419L51.8208 41.3357L52.3422 38.6087Z" fill="white"/>
<path d="M35.4587 36.1026L32.3529 35.5088L31.8315 38.2358L34.9374 38.8296L35.4587 36.1026Z" fill="white"/>
<path d="M32.921 49.0249L29.8151 48.4312L29.2938 51.1582L32.3996 51.752L32.921 49.0249Z" fill="white"/>
<path d="M62.9429 29.4197L59.8371 28.8259L59.3157 31.5529L61.813 32.0304L62.9429 29.4197Z" fill="white"/>
<path d="M34.673 35.9544C33.1234 35.6581 31.5207 35.8277 30.0677 36.4417C28.6147 37.0558 27.3767 38.0866 26.5101 39.404C25.6435 40.7213 25.1874 42.266 25.1993 43.8426C25.2113 45.4193 25.6908 46.9571 26.5772 48.2616C27.4636 49.5661 28.7172 50.5788 30.1793 51.1715C31.6414 51.7642 33.2465 51.9103 34.7915 51.5914C36.3365 51.2725 37.7521 50.5029 38.8592 49.3799C39.9663 48.2568 40.7153 46.8309 41.0113 45.2823C41.4083 43.2056 40.9636 41.0563 39.7749 39.3069C38.5863 37.5576 36.7511 36.3517 34.673 35.9544ZM37.5709 20.7969C33.5554 20.0392 29.4119 20.34 25.5487 21.6697C21.6854 22.9993 18.2357 25.3119 15.5393 28.3796C14.8955 29.1146 14.5703 30.0752 14.6352 31.05C14.7002 32.0248 15.1499 32.934 15.8856 33.5776C16.6212 34.2212 17.5825 34.5464 18.5579 34.4818C19.5333 34.4171 20.443 33.9679 21.0868 33.2329C22.9501 31.103 25.3441 29.5036 28.0259 28.5969C30.7077 27.6903 33.5819 27.5086 36.357 28.0703C39.1321 28.6321 41.7094 29.9172 43.8274 31.7955C45.9455 33.6737 47.5289 36.0782 48.4172 38.7651C48.7256 39.6929 49.3901 40.4604 50.2646 40.8988C51.1391 41.3371 52.1519 41.4104 53.0802 41.1025C54.0086 40.7945 54.7764 40.1306 55.2148 39.2568C55.6532 38.383 55.7263 37.3709 55.4179 36.443C54.1042 32.4847 51.7578 28.9479 48.6206 26.1976C45.4834 23.4473 41.669 21.5829 37.5709 20.7969ZM65.8484 26.868C63.4801 21.7361 59.9212 17.2424 55.4671 13.7601C51.013 10.2778 45.7922 7.9073 40.2382 6.84546C34.6842 5.78362 28.9571 6.06105 23.5326 7.65472C18.108 9.2484 13.1425 12.1123 9.04812 16.0088C8.33969 16.6823 7.92809 17.6096 7.90388 18.5867C7.87966 19.5637 8.24481 20.5104 8.919 21.2185C9.59318 21.9267 10.5212 22.3383 11.4988 22.3627C12.4765 22.3872 13.4237 22.0225 14.1321 21.3489C17.3779 18.2608 21.3141 15.9911 25.6139 14.7281C29.9138 13.4652 34.4533 13.2454 38.8557 14.0871C43.2581 14.9288 47.3964 16.8076 50.9272 19.5676C54.4579 22.3276 57.2792 25.8893 59.1569 29.9569C59.5669 30.8443 60.3128 31.5327 61.2305 31.8706C62.1483 32.2085 63.1626 32.1683 64.0505 31.7588C64.9384 31.3493 65.627 30.604 65.9649 29.687C66.3028 28.7699 66.2623 27.7562 65.8523 26.8688L65.8484 26.868Z" fill="white"/>
<g style="mix-blend-mode:multiply">
<path d="M32.8785 6.22369C32.8785 6.22369 36.3623 9.69407 41.4654 10.1552C41.4654 10.1552 42.4867 14.5315 45.3084 16.0898C44.387 10.2013 43.6475 6.68212 43.6475 6.68212L37.5615 5.51857" fill="white"/>
</g>
<path d="M32.4106 47.7886C34.6235 48.2117 36.7603 46.762 37.1831 44.5505C37.6059 42.339 36.1546 40.2033 33.9416 39.7802C31.7287 39.3571 29.5919 40.8069 29.1692 43.0184C28.7464 45.2298 30.1976 47.3656 32.4106 47.7886Z" fill="white"/>
<path d="M9.00313 16.2443C13.0975 12.3479 18.063 9.48395 23.4876 7.89027C28.9122 6.2966 34.6392 6.01917 40.1932 7.08101C45.7472 8.14285 50.968 10.5133 55.4221 13.9956C59.8762 17.4779 63.4351 21.9716 65.8034 27.1036C66.1057 27.7561 66.2088 28.4832 66.0997 29.1938C66.2706 28.4138 66.1819 27.5993 65.8473 26.8741C63.479 21.7421 59.9201 17.2484 55.466 13.7661C51.0119 10.2838 45.7911 7.91331 40.2371 6.85147C34.6831 5.78963 28.956 6.06706 23.5315 7.66073C18.1069 9.25441 13.1414 12.1183 9.04702 16.0148C8.46846 16.5654 8.08561 17.2898 7.95663 18.0778C8.11741 17.3771 8.48142 16.7393 9.00313 16.2443Z" fill="white"/>
<path d="M37.5709 20.7968C33.5554 20.0392 29.4119 20.34 25.5486 21.6697C21.6854 22.9993 18.2356 25.3119 15.5393 28.3796C15.09 28.8921 14.793 29.52 14.6819 30.1924C14.8182 29.6083 15.0972 29.067 15.4939 28.617C18.2127 25.5096 21.7056 23.1762 25.6183 21.8534C29.531 20.5305 33.7245 20.2653 37.7734 21.0846C41.8223 21.9039 45.5828 23.7786 48.6733 26.5186C51.7639 29.2586 54.0747 32.7664 55.3714 36.6863C55.5535 37.2388 55.6022 37.8265 55.5136 38.4014C55.6584 37.7538 55.6249 37.0791 55.4168 36.4489C54.1041 32.4896 51.7582 28.9517 48.6211 26.2003C45.4841 23.4489 41.6695 21.5836 37.5709 20.7968Z" fill="white"/>
<path d="M34.673 35.9543C32.595 35.557 30.4443 36.0009 28.6942 37.1884C26.9441 38.3758 25.7378 40.2096 25.3408 42.2862C25.3333 42.3254 25.3258 42.3647 25.3183 42.4039C25.7152 40.3278 26.9212 38.4945 28.6709 37.3074C30.4206 36.1202 32.5707 35.6764 34.6482 36.0736C36.7257 36.4708 38.5605 37.6764 39.7488 39.4253C40.9372 41.1742 41.3818 43.323 40.9849 45.3991C40.9924 45.3599 40.9999 45.3206 41.0074 45.2814C41.4043 43.2055 40.96 41.0568 39.7722 39.3077C38.5843 37.5587 36.7502 36.3525 34.673 35.9543Z" fill="white"/>
</g>
</svg>
