<svg width="126" height="122" viewBox="0 0 126 122" fill="none" xmlns="http://www.w3.org/2000/svg">
<g opacity="0.1">
<path d="M87.3187 74.0446C83.9224 67.8149 76.1163 65.5209 69.8833 68.9207C63.6503 72.3205 61.3507 80.1268 64.747 86.3564C68.1433 92.5861 75.9493 94.8801 82.1823 91.4803C88.4153 88.0805 90.7149 80.2742 87.3187 74.0446Z" fill="white"/>
<path d="M91.9768 33.4294C91.2299 34.0078 90.3559 34.3997 89.4274 34.5726C88.4989 34.7455 87.5426 34.6943 86.6381 34.4235C79.7224 32.3496 72.4105 31.9551 65.3095 33.2728C58.2085 34.5905 51.5231 37.5823 45.8082 42C40.0933 46.4176 35.5137 52.1337 32.4496 58.6738C29.3855 65.2138 27.9252 72.3892 28.19 79.6044C28.2184 80.3839 28.0929 81.1615 27.8207 81.8927C27.5485 82.624 27.135 83.2945 26.6037 83.8662C25.5308 85.0206 24.0434 85.7019 22.4688 85.7602C21.6891 85.7891 20.9114 85.6641 20.1803 85.3925C19.4491 85.1208 18.7787 84.7078 18.2073 84.177C17.0534 83.105 16.3729 81.6183 16.3157 80.044C15.9802 70.9417 17.8214 61.8893 21.6862 53.6383C25.5511 45.3874 31.3282 38.1759 38.5379 32.6028C45.7476 27.0296 54.1818 23.2556 63.1403 21.5939C72.0988 19.9323 81.3231 20.4311 90.0473 23.0488C91.0934 23.3617 92.0328 23.9571 92.762 24.7695C93.4913 25.5818 93.9822 26.5796 94.1809 27.6532C94.3795 28.7268 94.2782 29.8346 93.888 30.8547C93.4978 31.8748 92.8338 32.7677 91.9692 33.4354L91.9768 33.4294Z" fill="white"/>
<path d="M27.4579 77.5825L22.5291 81.3926L25.2655 84.9326L29.0781 81.9854L27.4579 77.5825Z" fill="white"/>
<path d="M91.7745 56.0154C90.9375 56.6661 89.9415 57.0809 88.8902 57.2167C87.8389 57.3525 86.7706 57.2044 85.7963 56.7877C81.6038 54.9927 77.0103 54.3385 72.4818 54.8915C67.9533 55.4444 63.6508 57.1849 60.0107 59.9364C56.3706 62.6878 53.5224 66.3524 51.755 70.5583C49.9876 74.7643 49.3638 79.362 49.9469 83.8852C50.1474 85.4471 49.719 87.025 48.756 88.2718C47.793 89.5187 46.3744 90.3323 44.8121 90.5337C43.2498 90.7351 41.6719 90.3078 40.4255 89.3459C39.1791 88.3839 38.3663 86.966 38.1659 85.4042C37.3161 78.8052 38.2266 72.0978 40.8053 65.9619C43.384 59.826 47.5391 54.4798 52.8493 50.4654C58.1595 46.4511 64.436 43.9112 71.0424 43.1034C77.6489 42.2956 84.3503 43.2486 90.4674 45.8657C91.4183 46.2723 92.2464 46.9203 92.8698 47.7454C93.4931 48.5705 93.89 49.5442 94.0213 50.5701C94.1526 51.596 94.0136 52.6386 93.6182 53.5947C93.2228 54.5508 92.5847 55.3872 91.7669 56.0213L91.7745 56.0154Z" fill="white"/>
<path d="M48.9076 82.7354L44.8759 85.8521L47.6123 89.3921L51.6441 86.2755L48.9076 82.7354Z" fill="white"/>
<path d="M92.9044 49.4864L88.8726 52.603L91.6091 56.1431L95.6409 53.0265L92.9044 49.4864Z" fill="white"/>
<path d="M71.859 67.1988L67.8273 70.3154L70.5638 73.8555L74.5955 70.7389L71.859 67.1988Z" fill="white"/>
<path d="M84.7544 84.0548L80.7227 87.1714L83.4591 90.7114L87.4909 87.5948L84.7544 84.0548Z" fill="white"/>
<path d="M93.1227 26.8795L89.0909 29.9961L91.8274 33.5361L95.0692 31.0302L93.1227 26.8795Z" fill="white"/>
<path d="M70.8415 67.9901C68.8299 69.5451 67.3242 71.6614 66.5149 74.0712C65.7056 76.481 65.629 79.0762 66.2948 81.5286C66.9607 83.9809 68.3391 86.1803 70.2556 87.8486C72.1722 89.5169 74.5409 90.5792 77.0622 90.9011C79.5835 91.223 82.1441 90.7901 84.4203 89.6571C86.6965 88.5242 88.586 86.742 89.8499 84.536C91.1137 82.33 91.6952 79.7993 91.5207 77.2639C91.3463 74.7285 90.4237 72.3022 88.8698 70.2919C86.786 67.5962 83.7159 65.8392 80.3349 65.4075C76.954 64.9759 73.5391 65.9049 70.8415 67.9901ZM55.6314 48.3136C50.4309 52.3538 46.3719 57.6781 43.8543 63.7622C41.3367 69.8462 40.4474 76.48 41.274 83.01C41.4744 84.5718 42.2872 85.9897 43.5336 86.9517C44.78 87.9137 46.3579 88.3409 47.9202 88.1395C49.4824 87.9381 50.9011 87.1245 51.8641 85.8777C52.827 84.6308 53.2554 83.0529 53.055 81.4911C52.4718 76.9678 53.0956 72.3701 54.863 68.1641C56.6304 63.9582 59.4786 60.2936 63.1187 57.5422C66.7588 54.7907 71.0613 53.0503 75.5899 52.4973C80.1184 51.9443 84.7118 52.5985 88.9043 54.3936C90.3538 55.0115 91.9898 55.0282 93.4524 54.4401C94.915 53.852 96.0844 52.7072 96.7034 51.2576C97.3224 49.8079 97.3402 48.1722 96.753 46.7102C96.1657 45.2483 95.0215 44.0798 93.5721 43.4619C87.3902 40.8235 80.6153 39.8822 73.946 40.735C67.2766 41.5879 60.9544 44.204 55.6314 48.3136ZM93.1423 20.6478C84.4178 18.0303 75.1933 17.5318 66.2346 19.1936C57.2759 20.8554 48.8415 24.6296 41.6317 30.2029C34.4218 35.7762 28.6445 42.9877 24.7794 51.2388C20.9143 59.4899 19.0729 68.5425 19.4081 77.645C19.4654 79.2193 20.1458 80.706 21.2997 81.778C22.4537 82.85 23.9865 83.4195 25.5612 83.3612C27.1358 83.3029 28.6232 82.6216 29.6962 81.4672C30.7691 80.3127 31.3397 78.7797 31.2824 77.2054C31.0177 69.9902 32.4779 62.8149 35.542 56.2748C38.6061 49.7348 43.1857 44.0187 48.9006 39.601C54.6155 35.1833 61.3009 32.1915 68.4019 30.8738C75.5029 29.5561 82.8148 29.9506 89.7305 32.0245C91.2396 32.4765 92.867 32.3105 94.2545 31.563C95.642 30.8155 96.676 29.5477 97.1291 28.0386C97.5822 26.5294 97.4173 24.9025 96.6705 23.5157C95.9238 22.1289 94.6565 21.0959 93.1474 20.6439L93.1423 20.6478Z" fill="white"/>
<g style="mix-blend-mode:multiply">
<path d="M33.0261 38.4257C33.0261 38.4257 40.9348 37.9228 46.9381 32.2529C46.9381 32.2529 53.3125 35.6904 58.2057 33.9463C50.1119 28.7742 45.0732 25.9112 45.0732 25.9112L37.1727 32.0183" fill="white"/>
</g>
<path d="M82.7166 83.3517C85.5894 81.131 86.1192 77.0036 83.9001 74.1329C81.681 71.2621 77.5532 70.7351 74.6804 72.9557C71.8077 75.1764 71.2778 79.3038 73.497 82.1746C75.7161 85.0453 79.8439 85.5723 82.7166 83.3517Z" fill="white"/>
<path d="M19.6445 77.9503C19.3093 68.8478 21.1507 59.7952 25.0158 51.5441C28.8809 43.293 34.6582 36.0814 41.868 30.5081C49.0779 24.9348 57.5123 21.1606 66.471 19.4988C75.4297 17.837 84.6542 18.3355 93.3787 20.9531C94.4893 21.2844 95.4772 21.9359 96.219 22.8261C95.4593 21.7873 94.3812 21.0251 93.1483 20.6551C84.4239 18.0376 75.1993 17.539 66.2406 19.2008C57.282 20.8626 48.8476 24.6369 41.6377 30.2101C34.4278 35.7834 28.6505 42.995 24.7854 51.2461C20.9203 59.4972 19.0789 68.5498 19.4141 77.6523C19.4616 78.9386 19.9277 80.174 20.7416 81.1708C20.067 80.2288 19.6854 79.1085 19.6445 77.9503Z" fill="white"/>
<path d="M55.6314 48.3133C50.4309 52.3534 46.3719 57.6778 43.8543 63.7618C41.3367 69.8458 40.4474 76.4796 41.2739 83.0096C41.4133 84.0992 41.8545 85.1279 42.5478 85.9796C41.9879 85.1916 41.6321 84.2771 41.5121 83.3178C40.6616 76.7184 41.5719 70.0103 44.1505 63.8738C46.7291 57.7373 50.8844 52.3906 56.1951 48.3759C61.5057 44.3611 67.7828 41.8212 74.3898 41.0136C80.9969 40.206 87.6988 41.1595 93.8161 43.7773C94.6776 44.1471 95.4393 44.7155 96.0389 45.4361C95.4114 44.5701 94.561 43.8904 93.5779 43.4692C87.396 40.8286 80.6203 39.8854 73.9498 40.737C67.2794 41.5885 60.9557 44.2039 55.6314 48.3133Z" fill="white"/>
<path d="M70.8415 67.9896C68.1439 70.0749 66.3846 73.1456 65.9506 76.5262C65.5166 79.9069 66.4435 83.3206 68.5273 86.0163C68.5667 86.0672 68.6061 86.1181 68.6454 86.1691C66.5622 83.474 65.6355 80.0612 66.0694 76.6814C66.5033 73.3016 68.2621 70.2317 70.959 68.1469C73.6559 66.0622 77.0699 65.1335 80.45 65.565C83.8301 65.9966 86.8995 67.7531 88.9828 70.4482C88.9434 70.3972 88.904 70.3463 88.8646 70.2954C86.7815 67.6005 83.7127 65.8438 80.333 65.4114C76.9533 64.979 73.5392 65.9064 70.8415 67.9896Z" fill="white"/>
</g>
</svg>
