<svg width="96" height="96" viewBox="0 0 96 96" fill="none" xmlns="http://www.w3.org/2000/svg">
<g opacity="0.1">
<path d="M67.7098 55.2479C64.4566 50.8883 58.2837 49.9939 53.922 53.2501C49.5603 56.5062 48.6617 62.68 51.9148 67.0395C55.1679 71.399 61.3409 72.2935 65.7025 69.0373C70.0642 65.7811 70.9629 59.6074 67.7098 55.2479Z" fill="white"/>
<path d="M66.8403 23.9188C66.3362 24.4387 65.7154 24.8309 65.0295 25.0628C64.3435 25.2947 63.6123 25.3596 62.8965 25.2521C57.423 24.4282 51.8311 24.9218 46.5849 26.6919C41.3386 28.462 36.5894 31.4576 32.7313 35.4301C28.8732 39.4025 26.0175 44.2372 24.4014 49.5329C22.7852 54.8286 22.4552 60.4326 23.4386 65.8796C23.5446 66.4681 23.5337 67.0719 23.4065 67.6564C23.2792 68.2408 23.0381 68.7946 22.6969 69.286C22.0078 70.2785 20.9529 70.9569 19.7642 71.1719C19.1756 71.2783 18.5719 71.2678 17.9875 71.141C17.4031 71.0141 16.8495 70.7734 16.3583 70.4325C15.3663 69.7441 14.6887 68.6896 14.4745 67.501C13.2328 60.6294 13.6484 53.5597 15.6867 46.8787C17.7251 40.1977 21.3274 34.0982 26.1946 29.0867C31.0618 24.0753 37.0535 20.2964 43.6721 18.0638C50.2907 15.8312 57.3453 15.2093 64.2502 16.2499C65.0781 16.3739 65.8555 16.7239 66.4971 17.2613C67.1386 17.7987 67.6194 18.5028 67.8866 19.296C68.1538 20.0892 68.197 20.9409 68.0115 21.7574C67.826 22.574 67.419 23.3236 66.8352 23.9241L66.8403 23.9188Z" fill="white"/>
<path d="M22.6637 64.4248L19.3363 67.8508L21.797 70.2407L24.3708 67.5905L22.6637 64.4248Z" fill="white"/>
<path d="M69.136 41.0818C68.5713 41.6664 67.8604 42.0892 67.0773 42.3063C66.2942 42.5234 65.4673 42.5269 64.6827 42.3163C61.3063 41.4087 57.7492 41.4103 54.3724 42.3211C50.9955 43.2319 47.919 45.0194 45.4549 47.5023C42.9907 49.9852 41.2265 53.0752 40.3413 56.4589C39.4561 59.8425 39.4813 63.3995 40.4144 66.7691C40.7359 67.9327 40.5819 69.1766 39.9863 70.2273C39.3907 71.278 38.4023 72.0493 37.2385 72.3716C36.0747 72.6939 34.8309 72.5407 33.7806 71.9458C32.7304 71.3509 31.9597 70.363 31.6382 69.1994C30.2776 64.2835 30.2413 59.0943 31.5329 54.158C32.8245 49.2216 35.3981 44.7137 38.9928 41.0912C42.5875 37.4687 47.0754 34.8605 52.0016 33.531C56.9278 32.2014 62.117 32.1979 67.0432 33.5207C67.809 33.7262 68.5078 34.1281 69.0703 34.6867C69.6328 35.2453 70.0397 35.9412 70.2506 36.7056C70.4615 37.4699 70.4691 38.2762 70.2727 39.0447C70.0763 39.8132 69.6827 40.5172 69.1308 41.0871L69.136 41.0818Z" fill="white"/>
<path d="M39.5012 66.0095L36.7793 68.812L39.24 71.2019L41.9618 68.3994L39.5012 66.0095Z" fill="white"/>
<path d="M69.2855 36.0046L66.5637 38.8071L69.0244 41.197L71.7462 38.3945L69.2855 36.0046Z" fill="white"/>
<path d="M55.2344 51.7292L52.5126 54.5317L54.9733 56.9216L57.6951 54.1191L55.2344 51.7292Z" fill="white"/>
<path d="M66.8491 63.123L64.1273 65.9255L66.5879 68.3154L69.3098 65.5129L66.8491 63.123Z" fill="white"/>
<path d="M66.9995 18.8235L64.2777 21.626L66.7384 24.0158L68.9268 21.7625L66.9995 18.8235Z" fill="white"/>
<path d="M54.548 52.44C53.1899 53.8383 52.2767 55.6077 51.9239 57.5243C51.571 59.441 51.7943 61.4188 52.5656 63.2077C53.3369 64.9967 54.6215 66.5164 56.257 67.5746C57.8924 68.6329 59.8053 69.1822 61.7537 69.1531C63.7021 69.1239 65.5984 68.5177 67.203 67.411C68.8076 66.3043 70.0483 64.7469 70.7683 62.9357C71.4882 61.1244 71.655 59.1407 71.2477 57.2355C70.8403 55.3302 69.877 53.5889 68.4797 52.2317C66.6059 50.4119 64.0854 49.4114 61.4727 49.4505C58.86 49.4895 56.3691 50.5649 54.548 52.44ZM40.8708 39.1565C37.3621 42.7867 34.8591 47.2677 33.6082 52.158C32.3574 57.0484 32.4019 62.1793 33.7373 67.0455C34.0588 68.2091 34.8294 69.197 35.8797 69.7919C36.9299 70.3868 38.1738 70.5399 39.3376 70.2177C40.5014 69.8954 41.4898 69.124 42.0854 68.0734C42.681 67.0227 42.835 65.7787 42.5135 64.6151C41.5804 61.2456 41.5552 57.6886 42.4404 54.3049C43.3256 50.9212 45.0898 47.8312 47.5539 45.3483C50.0181 42.8654 53.0946 41.0779 56.4715 40.1672C59.8483 39.2564 63.4053 39.2547 66.7818 40.1624C67.9488 40.4741 69.1922 40.3094 70.2385 39.7045C71.2847 39.0995 72.048 38.1039 72.3606 36.9366C72.6731 35.7693 72.5093 34.526 71.9051 33.4801C71.3008 32.4343 70.3057 31.6716 69.1387 31.3598C64.161 30.0279 58.9173 30.0483 53.9483 31.4188C48.9792 32.7893 44.4649 35.4604 40.8708 39.1565ZM66.3384 14.0923C59.4333 13.052 52.3785 13.674 45.7598 15.9067C39.141 18.1395 33.1493 21.9185 28.2819 26.9301C23.4146 31.9417 19.8122 38.0413 17.7737 44.7224C15.7352 51.4035 15.3194 58.4734 16.561 65.3452C16.7752 66.5338 17.4528 67.5883 18.4448 68.2767C19.4368 68.9651 20.6619 69.2311 21.8506 69.0161C23.0393 68.8011 24.0942 68.1227 24.7833 67.1302C25.4724 66.1377 25.7392 64.9124 25.525 63.7238C24.5416 58.2768 24.8717 52.6728 26.4878 47.3771C28.104 42.0814 30.9596 37.2467 34.8177 33.2743C38.6758 29.3018 43.4251 26.3062 48.6713 24.5361C53.9176 22.766 59.5095 22.2724 64.9829 23.0963C66.1772 23.2757 67.3942 22.9733 68.3662 22.2555C69.3381 21.5377 69.9854 20.4634 70.1656 19.2689C70.3458 18.0745 70.0442 16.8576 69.3271 15.8862C68.61 14.9147 67.5362 14.2681 66.3418 14.0888L66.3384 14.0923Z" fill="white"/>
<g style="mix-blend-mode:multiply">
<path d="M22.6428 34.1041C22.6428 34.1041 28.5904 32.8647 32.5315 27.9106C32.5315 27.9106 37.7421 29.8282 41.2665 27.9738C34.563 24.9264 30.4285 23.3 30.4285 23.3L25.0949 28.7917" fill="white"/>
</g>
<path d="M65.2264 62.8106C67.1657 60.8137 67.1202 57.6239 65.1247 55.6858C63.1293 53.7478 59.9394 53.7955 58.0001 55.7923C56.0607 57.7892 56.1062 60.979 58.1017 62.9171C60.0972 64.8551 63.287 64.8074 65.2264 62.8106Z" fill="white"/>
<path d="M16.7737 65.551C15.5321 58.6793 15.9479 51.6093 17.9864 44.9282C20.0249 38.2471 23.6273 32.1475 28.4946 27.1359C33.362 22.1243 39.3537 18.3453 45.9725 16.1125C52.5912 13.8798 59.646 13.2578 66.5511 14.2981C67.4299 14.4291 68.2503 14.8164 68.9098 15.4116C68.2206 14.7056 67.3197 14.244 66.344 14.0969C59.4389 13.0566 52.3841 13.6786 45.7653 15.9114C39.1466 18.1441 33.1548 21.9231 28.2875 26.9347C23.4202 31.9463 19.8177 38.0459 17.7792 44.727C15.7407 51.4082 15.325 58.4781 16.5665 65.3499C16.7421 66.3209 17.2297 67.208 17.9555 67.8762C17.3414 67.2344 16.9303 66.4256 16.7737 65.551Z" fill="white"/>
<path d="M40.8708 39.1562C37.3621 42.7864 34.8591 47.2674 33.6082 52.1577C32.3573 57.048 32.4018 62.179 33.7373 67.0452C33.9612 67.8569 34.4076 68.5898 35.0262 69.161C34.5158 68.6237 34.1466 67.9682 33.9515 67.2532C32.5903 62.337 32.5536 57.1473 33.8451 52.2105C35.1366 47.2738 37.7104 42.7654 41.3053 39.1426C44.9003 35.5198 49.3887 32.9114 54.3154 31.582C59.242 30.2526 64.4317 30.2494 69.3582 31.5727C70.0521 31.7599 70.6918 32.1087 71.2249 32.5905C70.6549 32.0014 69.9357 31.5778 69.144 31.3647C64.166 30.0311 58.9215 30.0501 53.9514 31.4198C48.9814 32.7894 44.4659 35.4601 40.8708 39.1562Z" fill="white"/>
<path d="M54.5483 52.44C52.7272 54.3151 51.725 56.8363 51.7623 59.449C51.7995 62.0617 52.8732 64.5519 54.747 66.3718C54.7824 66.4062 54.8178 66.4406 54.8532 66.475C52.9798 64.6556 51.9065 62.166 51.8692 59.5539C51.832 56.9418 52.8339 54.4212 54.6545 52.5466C56.4752 50.672 58.9655 49.5969 61.5775 49.5579C64.1896 49.5188 66.7094 50.519 68.5828 52.3384C68.5473 52.304 68.5119 52.2697 68.4765 52.2353C66.6033 50.416 64.0839 49.4156 61.472 49.454C58.8602 49.4924 56.3697 50.5664 54.5483 52.44Z" fill="white"/>
</g>
</svg>
